# xmcd
#
# Track frame offsets:
#	150
#	24333
#	52789
#	68643
#	83841
#	101255
#	121421
#	171106
#	192437
#	213642
#	240822
#	269812
#	284525
#	295528
#	307096
#
# Disc length: 4297 seconds
#
# Revision: 0
# Processed by: cddbd v1.5.2PL0 Copyright (c) Steve Scherf et al.
# Submitted via: EasyCDDAExtractor 16.1.0.1
#
DISCID=d110c70f
DTITLE=Various Artist - 288_Neu Decade
DYEAR=2017
DGENRE=
TTITLE0=Michael Rother - Karussell
TTITLE1=Brainticket - To Another Universe
TTITLE2=Amon Düül II - Fly United
TTITLE3=Can - Future Days [Edit]
TTITLE4=Cluster - Dem Wanderer
TTITLE5=Deuter - Der Turm/Fluchtpunkt
TTITLE6=Guru Guru - Electric Junk
TTITLE7=Popol Vuh - Steh Auf, Zieh Mich Dir Nach
TTITLE8=Roedelius - Am Rockzipfel
TTITLE9=Conrad Schnitzler - Die Rebellen Haben Sich In Den Bergen Versteckt [S
TTITLE9=chaltkreis Edit]
TTITLE10=Tim Blake - Metro Logic
TTITLE11=Pyrolator - Danger Cruising
TTITLE12=Richard Pinhas - The Last Kings Of Thule (Part 1)
TTITLE13=DAF - Bild 4
TTITLE14=Tangerine Dream - Ultima Thule (Part 1)
EXTD=
EXTT0=
EXTT1=
EXTT2=
EXTT3=
EXTT4=
EXTT5=
EXTT6=
EXTT7=
EXTT8=
EXTT9=
EXTT10=
EXTT11=
EXTT12=
EXTT13=
EXTT14=
PLAYORDER=
